<mxfile host="Electron" modified="2024-04-17T04:08:31.015Z" agent="Mozilla/5.0 (Windows NT 10.0; Win64; x64) AppleWebKit/537.36 (KHTML, like Gecko) draw.io/24.1.0 Chrome/120.0.6099.109 Electron/28.1.0 Safari/537.36" etag="mwOtaCgSsYe-OHtSWDGa" version="24.1.0" type="device">
  <diagram name="Page-1" id="kqFHcIuxuwMGuDFP54hW">
    <mxGraphModel dx="880" dy="532" grid="1" gridSize="10" guides="1" tooltips="1" connect="1" arrows="1" fold="1" page="1" pageScale="1" pageWidth="1169" pageHeight="827" math="0" shadow="0">
      <root>
        <mxCell id="0" />
        <mxCell id="1" parent="0" />
        <mxCell id="Ev9MkNEBeL5gujuolwRq-6" style="edgeStyle=orthogonalEdgeStyle;rounded=0;orthogonalLoop=1;jettySize=auto;html=1;exitX=0;exitY=0.5;exitDx=0;exitDy=0;entryX=0.5;entryY=0;entryDx=0;entryDy=0;strokeWidth=2;endArrow=none;endFill=0;curved=1;" edge="1" parent="1" source="Ev9MkNEBeL5gujuolwRq-1" target="Ev9MkNEBeL5gujuolwRq-2">
          <mxGeometry relative="1" as="geometry" />
        </mxCell>
        <mxCell id="Ev9MkNEBeL5gujuolwRq-7" style="edgeStyle=orthogonalEdgeStyle;rounded=0;orthogonalLoop=1;jettySize=auto;html=1;exitX=1;exitY=0.5;exitDx=0;exitDy=0;entryX=0.5;entryY=0;entryDx=0;entryDy=0;curved=1;strokeWidth=2;endArrow=none;endFill=0;" edge="1" parent="1" source="Ev9MkNEBeL5gujuolwRq-1" target="Ev9MkNEBeL5gujuolwRq-5">
          <mxGeometry relative="1" as="geometry" />
        </mxCell>
        <mxCell id="Ev9MkNEBeL5gujuolwRq-8" style="edgeStyle=orthogonalEdgeStyle;rounded=0;orthogonalLoop=1;jettySize=auto;html=1;exitX=0.5;exitY=1;exitDx=0;exitDy=0;strokeWidth=2;endArrow=none;endFill=0;curved=1;" edge="1" parent="1" source="Ev9MkNEBeL5gujuolwRq-1" target="Ev9MkNEBeL5gujuolwRq-3">
          <mxGeometry relative="1" as="geometry" />
        </mxCell>
        <mxCell id="Ev9MkNEBeL5gujuolwRq-1" value="&lt;font style=&quot;font-size: 16px;&quot;&gt;&lt;b&gt;a&lt;/b&gt;&lt;/font&gt;" style="ellipse;whiteSpace=wrap;html=1;aspect=fixed;strokeWidth=2;" vertex="1" parent="1">
          <mxGeometry x="80" y="110" width="40" height="40" as="geometry" />
        </mxCell>
        <mxCell id="Ev9MkNEBeL5gujuolwRq-9" style="edgeStyle=orthogonalEdgeStyle;rounded=0;orthogonalLoop=1;jettySize=auto;html=1;exitX=1;exitY=0.5;exitDx=0;exitDy=0;curved=1;endArrow=none;endFill=0;strokeWidth=2;" edge="1" parent="1" source="Ev9MkNEBeL5gujuolwRq-2" target="Ev9MkNEBeL5gujuolwRq-3">
          <mxGeometry relative="1" as="geometry" />
        </mxCell>
        <mxCell id="Ev9MkNEBeL5gujuolwRq-2" value="&lt;font style=&quot;font-size: 16px;&quot;&gt;&lt;b&gt;b&lt;/b&gt;&lt;/font&gt;" style="ellipse;whiteSpace=wrap;html=1;aspect=fixed;strokeWidth=2;" vertex="1" parent="1">
          <mxGeometry x="20" y="220" width="40" height="40" as="geometry" />
        </mxCell>
        <mxCell id="Ev9MkNEBeL5gujuolwRq-3" value="&lt;font style=&quot;font-size: 16px;&quot;&gt;&lt;b&gt;d&lt;/b&gt;&lt;/font&gt;" style="ellipse;whiteSpace=wrap;html=1;aspect=fixed;strokeWidth=2;" vertex="1" parent="1">
          <mxGeometry x="120" y="220" width="40" height="40" as="geometry" />
        </mxCell>
        <mxCell id="Ev9MkNEBeL5gujuolwRq-10" style="edgeStyle=orthogonalEdgeStyle;rounded=0;orthogonalLoop=1;jettySize=auto;html=1;exitX=0.5;exitY=1;exitDx=0;exitDy=0;entryX=1;entryY=0.5;entryDx=0;entryDy=0;curved=1;strokeWidth=2;endArrow=none;endFill=0;" edge="1" parent="1" source="Ev9MkNEBeL5gujuolwRq-5" target="Ev9MkNEBeL5gujuolwRq-3">
          <mxGeometry relative="1" as="geometry" />
        </mxCell>
        <mxCell id="Ev9MkNEBeL5gujuolwRq-5" value="&lt;font style=&quot;font-size: 16px;&quot;&gt;&lt;b&gt;c&lt;/b&gt;&lt;/font&gt;" style="ellipse;whiteSpace=wrap;html=1;aspect=fixed;strokeWidth=2;" vertex="1" parent="1">
          <mxGeometry x="170" y="150" width="40" height="40" as="geometry" />
        </mxCell>
      </root>
    </mxGraphModel>
  </diagram>
</mxfile>
